<svg width="22" height="22" viewBox="0 0 22 22" fill="none" xmlns="http://www.w3.org/2000/svg">
<path d="M1 13C1 9.2288 1 7.34315 2.17157 6.17157C3.34315 5 5.22876 5 9 5H13C16.7712 5 18.6569 5 19.8284 6.17157C21 7.34315 21 9.2288 21 13C21 16.7712 21 18.6569 19.8284 19.8284C18.6569 21 16.7712 21 13 21H9C5.22876 21 3.34315 21 2.17157 19.8284C1 18.6569 1 16.7712 1 13Z" stroke="white" stroke-width="1.2"/>
<path d="M15.0001 5C15.0001 3.11438 15.0001 2.17157 14.4143 1.58579C13.8285 1 12.8857 1 11.0001 1C9.11446 1 8.17163 1 7.58585 1.58579C7.00006 2.17157 7.00006 3.11438 7.00006 5" stroke="white" stroke-width="1.2"/>
<path d="M8.99994 13.9995H4.99994C4.52854 13.9995 4.29283 13.9995 4.14639 14.1459C3.99994 14.2924 3.99994 14.5281 3.99994 14.9995V15.9995C3.99994 16.4709 3.99994 16.7066 4.14639 16.8531C4.29283 16.9995 4.52854 16.9995 4.99994 16.9995H8.99994C9.47134 16.9995 9.70704 16.9995 9.85354 16.8531C9.99994 16.7066 9.99994 16.4709 9.99994 15.9995V14.9995C9.99994 14.5281 9.99994 14.2924 9.85354 14.1459C9.70704 13.9995 9.47134 13.9995 8.99994 13.9995Z" stroke="white" stroke-width="1.2" stroke-linejoin="round"/>
<path d="M5.00006 5.5V14M5.00006 20.5V17.5" stroke="white" stroke-width="1.2" stroke-linecap="round"/>
<path d="M16.9999 5.5V20.5" stroke="white" stroke-width="1.2" stroke-linecap="round"/>
</svg>
